<svg width="24" height="24" viewBox="0 0 24 24" fill="none" xmlns="http://www.w3.org/2000/svg">
<path d="M21.3 14.88L20.3 13.88C20.2055 13.7874 20.1303 13.6769 20.0788 13.5551C20.0274 13.4332 20.0006 13.3023 20 13.17V9C20 6.87827 19.1572 4.84344 17.6569 3.34315C16.1566 1.84286 14.1217 1 12 1C9.87827 1 7.84344 1.84286 6.34315 3.34315C4.84286 4.84344 4 6.87827 4 9V13.17C3.99945 13.3023 3.97265 13.4332 3.92116 13.5551C3.86966 13.6769 3.79449 13.7874 3.7 13.88L2.7 14.88C2.25333 15.3374 2.00227 15.9507 2 16.59C2 17.2292 2.25391 17.8422 2.70587 18.2941C3.15784 18.7461 3.77083 19 4.41 19H8C8 20.0609 8.42143 21.0783 9.17157 21.8284C9.92172 22.5786 10.9391 23 12 23C13.0609 23 14.0783 22.5786 14.8284 21.8284C15.5786 21.0783 16 20.0609 16 19H19.59C20.2292 19 20.8422 18.7461 21.2941 18.2941C21.7461 17.8422 22 17.2292 22 16.59C21.9977 15.9507 21.7467 15.3374 21.3 14.88ZM12 21C11.4696 21 10.9609 20.7893 10.5858 20.4142C10.2107 20.0392 10 19.5304 10 19H14C14 19.5304 13.7893 20.0392 13.4142 20.4142C13.0391 20.7893 12.5304 21 12 21Z" fill="#071A52"/>
</svg>
