<svg width="18" height="18" viewBox="0 0 18 18" fill="none" xmlns="http://www.w3.org/2000/svg">
<path d="M15.9675 12.75C14.9768 13.7208 13.6421 14.2601 12.255 14.25H5.745C4.35794 14.2601 3.02325 13.7208 2.0325 12.75L0.75 11.43V13.5C0.75 13.9925 0.846997 14.4801 1.03545 14.9351C1.22391 15.39 1.50013 15.8034 1.84835 16.1517C2.55161 16.8549 3.50544 17.25 4.5 17.25H13.5C13.9925 17.25 14.4801 17.153 14.9351 16.9646C15.39 16.7761 15.8034 16.4999 16.1517 16.1517C16.4999 15.8034 16.7761 15.39 16.9646 14.9351C17.153 14.4801 17.25 13.9925 17.25 13.5V11.43L15.9675 12.75Z" fill="#17B978"/>
<path d="M13.5 3.75V3C13.5 2.40326 13.263 1.83097 12.841 1.40901C12.419 0.987053 11.8467 0.75 11.25 0.75H6.75001C6.15327 0.75 5.58098 0.987053 5.15902 1.40901C4.73706 1.83097 4.50001 2.40326 4.50001 3V3.75C4.00755 3.75 3.51992 3.847 3.06495 4.03546C2.60998 4.22391 2.19658 4.50013 1.84836 4.84835C1.1451 5.55162 0.750013 6.50544 0.750013 7.50001V9.00001C0.749442 9.09871 0.768361 9.19656 0.805684 9.28794C0.843008 9.37932 0.898001 9.46243 0.967512 9.53251L3.09001 11.655C3.4389 12.003 3.85297 12.2789 4.30853 12.4667C4.7641 12.6546 5.25222 12.7509 5.74501 12.75H12.255C12.7478 12.7509 13.2359 12.6546 13.6915 12.4667C14.1471 12.2789 14.5611 12.003 14.91 11.655L17.0325 9.53251C17.102 9.46243 17.157 9.37932 17.1943 9.28794C17.2317 9.19656 17.2506 9.09871 17.25 9.00001V7.50001C17.25 7.00755 17.153 6.51991 16.9646 6.06494C16.7761 5.60997 16.4999 5.19657 16.1517 4.84835C15.8034 4.50013 15.39 4.22391 14.9351 4.03546C14.4801 3.847 13.9925 3.75 13.5 3.75ZM10.5 8.25001H7.50001C7.3011 8.25001 7.11033 8.17099 6.96968 8.03034C6.82903 7.88969 6.75001 7.69892 6.75001 7.50001C6.75001 7.30109 6.82903 7.11033 6.96968 6.96968C7.11033 6.82902 7.3011 6.75001 7.50001 6.75001H10.5C10.6989 6.75001 10.8897 6.82902 11.0303 6.96968C11.171 7.11033 11.25 7.30109 11.25 7.50001C11.25 7.69892 11.171 7.88969 11.0303 8.03034C10.8897 8.17099 10.6989 8.25001 10.5 8.25001ZM12 3.75H6.00001V3C6.00001 2.80109 6.07903 2.61032 6.21968 2.46967C6.36033 2.32902 6.5511 2.25 6.75001 2.25H11.25C11.4489 2.25 11.6397 2.32902 11.7803 2.46967C11.921 2.61032 12 2.80109 12 3V3.75Z" fill="#17B978"/>
</svg>
