<svg width="18" height="18" viewBox="0 0 18 18" fill="none" xmlns="http://www.w3.org/2000/svg">
<path d="M7.5 2.25V0.75H10.5V2.25C10.5 2.44891 10.421 2.63968 10.2803 2.78033C10.1397 2.92098 9.94891 3 9.75 3H8.25C8.05108 3 7.86032 2.92098 7.71967 2.78033C7.57901 2.63968 7.5 2.44891 7.5 2.25ZM15.75 4.5V13.5C15.75 13.9925 15.653 14.4801 15.4645 14.9351C15.2761 15.39 14.9999 15.8034 14.6516 16.1517C14.3034 16.4999 13.89 16.7761 13.4351 16.9646C12.9801 17.153 12.4925 17.25 12 17.25H6C5.00544 17.25 4.05161 16.8549 3.34835 16.1517C2.64509 15.4484 2.25 14.4946 2.25 13.5V4.5C2.25 3.50544 2.64509 2.55161 3.34835 1.84835C4.05161 1.14509 5.00544 0.75 6 0.75V2.25C6 2.84674 6.23705 3.41904 6.65901 3.84099C7.08096 4.26295 7.65326 4.5 8.25 4.5H9.75C10.3467 4.5 10.919 4.26295 11.341 3.84099C11.7629 3.41904 12 2.84674 12 2.25V0.75C12.4925 0.75 12.9801 0.846997 13.4351 1.03545C13.89 1.22391 14.3034 1.50013 14.6516 1.84835C14.9999 2.19657 15.2761 2.60997 15.4645 3.06494C15.653 3.51991 15.75 4.00755 15.75 4.5ZM12.75 13.5C12.75 13.3011 12.671 13.1103 12.5303 12.9697C12.3897 12.829 12.1989 12.75 12 12.75H6C5.80109 12.75 5.61032 12.829 5.46967 12.9697C5.32902 13.1103 5.25 13.3011 5.25 13.5C5.25 13.6989 5.32902 13.8897 5.46967 14.0303C5.61032 14.171 5.80109 14.25 6 14.25H12C12.1989 14.25 12.3897 14.171 12.5303 14.0303C12.671 13.8897 12.75 13.6989 12.75 13.5ZM12.75 10.5C12.75 10.3011 12.671 10.1103 12.5303 9.96968C12.3897 9.82903 12.1989 9.75001 12 9.75001H6C5.80109 9.75001 5.61032 9.82903 5.46967 9.96968C5.32902 10.1103 5.25 10.3011 5.25 10.5C5.25 10.6989 5.32902 10.8897 5.46967 11.0303C5.61032 11.171 5.80109 11.25 6 11.25H12C12.1989 11.25 12.3897 11.171 12.5303 11.0303C12.671 10.8897 12.75 10.6989 12.75 10.5ZM12.75 7.50001C12.75 7.30109 12.671 7.11033 12.5303 6.96968C12.3897 6.82902 12.1989 6.75 12 6.75H6C5.80109 6.75 5.61032 6.82902 5.46967 6.96968C5.32902 7.11033 5.25 7.30109 5.25 7.50001C5.25 7.69892 5.32902 7.88968 5.46967 8.03034C5.61032 8.17099 5.80109 8.25001 6 8.25001H12C12.1989 8.25001 12.3897 8.17099 12.5303 8.03034C12.671 7.88968 12.75 7.69892 12.75 7.50001Z" fill="#17B978"/>
</svg>
