<svg width="18" height="18" viewBox="0 0 18 18" fill="none" xmlns="http://www.w3.org/2000/svg">
<path d="M4.05748 3.75H7.94248C8.57387 3.74886 9.19921 3.87288 9.78237 4.1149C10.3655 4.35692 10.8949 4.71213 11.34 5.16C11.3683 5.18889 11.4022 5.21176 11.4395 5.22722C11.4769 5.24269 11.517 5.25044 11.5575 5.25H13.9425C14.5628 5.2498 15.1771 5.37214 15.75 5.61V4.5C15.75 4.00754 15.653 3.51991 15.4645 3.06494C15.2761 2.60997 14.9998 2.19657 14.6516 1.84835C14.3034 1.50013 13.89 1.22391 13.435 1.03545C12.9801 0.846997 12.4924 0.75 12 0.75H5.99998C5.07952 0.755664 4.1933 1.09967 3.51008 1.7165C2.82686 2.33334 2.39438 3.17991 2.29498 4.095C2.8542 3.86563 3.45305 3.74841 4.05748 3.75Z" fill="#17B978"/>
<path d="M13.9425 6.75H11.5575C11.3202 6.75085 11.0851 6.70417 10.8661 6.61271C10.6472 6.52125 10.4487 6.38688 10.2825 6.2175C9.66126 5.59807 8.8198 5.25016 7.94251 5.25H4.0575C3.18091 5.25198 2.34078 5.60109 1.72093 6.22093C1.10109 6.84078 0.751981 7.68091 0.75 8.5575V13.9425C0.751981 14.8191 1.10109 15.6592 1.72093 16.2791C2.34078 16.8989 3.18091 17.248 4.0575 17.25H13.9425C14.8191 17.248 15.6592 16.8989 16.2791 16.2791C16.8989 15.6592 17.248 14.8191 17.25 13.9425V10.0575C17.248 9.18091 16.8989 8.34078 16.2791 7.72094C15.6592 7.10109 14.8191 6.75198 13.9425 6.75ZM7.50001 13.5H4.5C4.30109 13.5 4.11033 13.421 3.96967 13.2803C3.82902 13.1397 3.75 12.9489 3.75 12.75C3.75 12.5511 3.82902 12.3603 3.96967 12.2197C4.11033 12.079 4.30109 12 4.5 12H7.50001C7.69892 12 7.88968 12.079 8.03034 12.2197C8.17099 12.3603 8.25001 12.5511 8.25001 12.75C8.25001 12.9489 8.17099 13.1397 8.03034 13.2803C7.88968 13.421 7.69892 13.5 7.50001 13.5Z" fill="#17B978"/>
</svg>
