<svg width="16" height="18" viewBox="0 0 16 18" fill="none" xmlns="http://www.w3.org/2000/svg">
<path d="M13.8275 3.87749L10.0775 1.37999C9.46205 0.97043 8.73927 0.751923 8 0.751923C7.26073 0.751923 6.53795 0.97043 5.9225 1.37999L2.1725 3.87749C1.65837 4.21962 1.23669 4.68342 0.944922 5.22771C0.653151 5.772 0.500319 6.37993 0.5 6.99749V13.5C0.5 13.9925 0.596997 14.4801 0.785452 14.9351C0.973907 15.39 1.25013 15.8034 1.59835 16.1516C2.30161 16.8549 3.25544 17.25 4.25 17.25H5V12C5 11.4033 5.23705 10.831 5.65901 10.409C6.08097 9.98704 6.65326 9.74999 7.25 9.74999H8.75C9.34674 9.74999 9.91904 9.98704 10.341 10.409C10.7629 10.831 11 11.4033 11 12V17.25H11.75C12.2425 17.25 12.7301 17.153 13.1851 16.9645C13.64 16.7761 14.0534 16.4999 14.4017 16.1516C14.7499 15.8034 15.0261 15.39 15.2146 14.9351C15.403 14.4801 15.5 13.9925 15.5 13.5V6.99749C15.4997 6.37993 15.3469 5.772 15.0551 5.22771C14.7633 4.68342 14.3416 4.21962 13.8275 3.87749Z" fill="#17B978"/>
</svg>
