<svg width="18" height="18" viewBox="0 0 18 18" fill="none" xmlns="http://www.w3.org/2000/svg">
<path d="M16.6275 1.03499C16.8199 1.17383 16.9767 1.35635 17.085 1.56757C17.1932 1.77879 17.2497 2.01267 17.25 2.24999V12.1725C17.25 12.5703 17.0919 12.9519 16.8106 13.2332C16.5293 13.5145 16.1478 13.6725 15.75 13.6725C15.589 13.6713 15.4293 13.6435 15.2775 13.59L8.24998 11.25V3.17249L15.2775 0.824991C15.503 0.750608 15.7431 0.730858 15.9778 0.767368C16.2125 0.803877 16.4351 0.895601 16.6275 1.03499ZM8.31748 15.4725L7.26748 12.4725H4.39498L5.49748 16.125C5.52861 16.3201 5.59937 16.5068 5.70538 16.6735C5.81139 16.8403 5.95042 16.9836 6.1139 17.0945C6.27738 17.2055 6.46185 17.2818 6.65595 17.3188C6.85004 17.3558 7.04966 17.3527 7.24249 17.3096C7.43533 17.2665 7.6173 17.1844 7.7772 17.0683C7.93711 16.9523 8.07156 16.8047 8.17226 16.6347C8.27297 16.4647 8.33781 16.2759 8.36278 16.0799C8.38776 15.8839 8.37234 15.6848 8.31748 15.495V15.4725ZM6.74998 3.45749H4.49998C4.01763 3.45976 3.54878 3.61698 3.16257 3.90596C2.77637 4.19494 2.49325 4.60038 2.35498 5.06249C1.89927 5.20682 1.50137 5.49253 1.21895 5.8782C0.936543 6.26388 0.784302 6.72948 0.784302 7.2075C0.784302 7.68552 0.936543 8.15111 1.21895 8.53679C1.50137 8.92246 1.89927 9.20817 2.35498 9.3525C2.49325 9.81461 2.77637 10.2201 3.16257 10.509C3.54878 10.798 4.01763 10.9552 4.49998 10.9575H6.74998V3.45749Z" fill="#17B978"/>
</svg>
