<svg width="18" height="18" viewBox="0 0 18 18" fill="none" xmlns="http://www.w3.org/2000/svg">
<path d="M6 0.75H3C1.75736 0.75 0.75 1.75736 0.75 3V6C0.75 7.24264 1.75736 8.25 3 8.25H6C7.24264 8.25 8.25 7.24264 8.25 6V3C8.25 1.75736 7.24264 0.75 6 0.75Z" fill="#17B978"/>
<path d="M15 0.75H12C10.7574 0.75 9.75 1.75736 9.75 3V6C9.75 7.24264 10.7574 8.25 12 8.25H15C16.2426 8.25 17.25 7.24264 17.25 6V3C17.25 1.75736 16.2426 0.75 15 0.75Z" fill="#17B978"/>
<path d="M15 9.75002H12C10.7574 9.75002 9.75 10.7574 9.75 12V15C9.75 16.2427 10.7574 17.25 12 17.25H15C16.2426 17.25 17.25 16.2427 17.25 15V12C17.25 10.7574 16.2426 9.75002 15 9.75002Z" fill="#17B978"/>
<path d="M6 9.75002H3C1.75736 9.75002 0.75 10.7574 0.75 12V15C0.75 16.2427 1.75736 17.25 3 17.25H6C7.24264 17.25 8.25 16.2427 8.25 15V12C8.25 10.7574 7.24264 9.75002 6 9.75002Z" fill="#17B978"/>
</svg>
