<svg width="18" height="18" viewBox="0 0 18 18" fill="none" xmlns="http://www.w3.org/2000/svg">
<path d="M13.5 2.25H4.5C4.00755 2.25 3.51991 2.347 3.06494 2.53545C2.60997 2.72391 2.19657 3.00013 1.84835 3.34835C1.14509 4.05161 0.75 5.00544 0.75 6V12C0.75 12.9946 1.14509 13.9484 1.84835 14.6516C2.19657 14.9999 2.60997 15.2761 3.06494 15.4645C3.51991 15.653 4.00755 15.75 4.5 15.75H13.5C13.9925 15.75 14.4801 15.653 14.9351 15.4645C15.39 15.2761 15.8034 14.9999 16.1517 14.6516C16.4999 14.3034 16.7761 13.89 16.9646 13.4351C17.153 12.9801 17.25 12.4925 17.25 12V6C17.25 5.50754 17.153 5.01991 16.9646 4.56494C16.7761 4.10996 16.4999 3.69657 16.1517 3.34835C15.8034 3.00013 15.39 2.72391 14.9351 2.53545C14.4801 2.347 13.9925 2.25 13.5 2.25ZM13.9125 6.6225L9.41251 9.6225C9.29005 9.70314 9.14664 9.74612 9.00001 9.74612C8.85338 9.74612 8.70997 9.70314 8.58751 9.6225L4.0875 6.6225C3.99554 6.57317 3.91489 6.50519 3.8507 6.42291C3.78651 6.34064 3.74019 6.24587 3.71472 6.14467C3.68924 6.04347 3.68516 5.93807 3.70275 5.83521C3.72033 5.73235 3.75919 5.63428 3.81683 5.54729C3.87447 5.4603 3.94964 5.3863 4.03751 5.33002C4.12539 5.27373 4.22404 5.23641 4.32717 5.22043C4.43029 5.20444 4.53562 5.21016 4.63641 5.23721C4.7372 5.26425 4.83123 5.31204 4.9125 5.3775L9.00001 8.1L13.0875 5.3775C13.1688 5.31204 13.2628 5.26425 13.3636 5.23721C13.4644 5.21016 13.5697 5.20444 13.6728 5.22043C13.776 5.23641 13.8746 5.27373 13.9625 5.33002C14.0504 5.3863 14.1255 5.4603 14.1832 5.54729C14.2408 5.63428 14.2797 5.73235 14.2973 5.83521C14.3148 5.93807 14.3108 6.04347 14.2853 6.14467C14.2598 6.24587 14.2135 6.34064 14.1493 6.42291C14.0851 6.50519 14.0045 6.57317 13.9125 6.6225Z" fill="#17B978"/>
</svg>
