<svg width="18" height="18" viewBox="0 0 18 18" fill="none" xmlns="http://www.w3.org/2000/svg">
<path d="M17.25 13.5V14.25C17.25 14.8467 17.013 15.419 16.591 15.841C16.169 16.263 15.5967 16.5 15 16.5H3C2.40326 16.5 1.83097 16.263 1.40901 15.841C0.987053 15.419 0.75 14.8467 0.75 14.25V13.5C0.75 13.3011 0.829018 13.1103 0.96967 12.9697C1.11032 12.829 1.30109 12.75 1.5 12.75H16.5C16.6989 12.75 16.8897 12.829 17.0303 12.9697C17.171 13.1103 17.25 13.3011 17.25 13.5ZM16.5 3.75V11.25H1.5V3.75C1.5 3.15326 1.73705 2.58097 2.15901 2.15901C2.58097 1.73705 3.15326 1.5 3.75 1.5H14.25C14.8467 1.5 15.419 1.73705 15.841 2.15901C16.263 2.58097 16.5 3.15326 16.5 3.75ZM8.25001 5.25C8.25001 5.15054 8.28951 5.05516 8.35984 4.98484C8.43017 4.91451 8.52555 4.875 8.62501 4.875H10.5C10.6989 4.875 10.8897 4.79598 11.0303 4.65533C11.171 4.51468 11.25 4.32391 11.25 4.125C11.25 3.92609 11.171 3.73532 11.0303 3.59467C10.8897 3.45402 10.6989 3.375 10.5 3.375H9.75001C9.75001 3.17609 9.67099 2.98532 9.53034 2.84467C9.38968 2.70402 9.19892 2.625 9.00001 2.625C8.80109 2.625 8.61033 2.70402 8.46968 2.84467C8.32902 2.98532 8.25001 3.17609 8.25001 3.375C7.75272 3.42473 7.29557 3.66996 6.9791 4.05676C6.66263 4.44355 6.51278 4.94022 6.5625 5.4375C6.61223 5.93478 6.85747 6.39194 7.24426 6.70841C7.63106 7.02488 8.12773 7.17473 8.62501 7.125H9.37501C9.47446 7.125 9.56985 7.16451 9.64017 7.23484C9.7105 7.30516 9.75001 7.40055 9.75001 7.5C9.75001 7.59946 9.7105 7.69484 9.64017 7.76517C9.56985 7.83549 9.47446 7.875 9.37501 7.875H7.50001C7.30109 7.875 7.11033 7.95402 6.96968 8.09467C6.82902 8.23532 6.75 8.42609 6.75 8.625C6.75 8.82391 6.82902 9.01468 6.96968 9.15533C7.11033 9.29598 7.30109 9.375 7.50001 9.375H8.25001C8.25001 9.57391 8.32902 9.76468 8.46968 9.90533C8.61033 10.046 8.80109 10.125 9.00001 10.125C9.19892 10.125 9.38968 10.046 9.53034 9.90533C9.67099 9.76468 9.75001 9.57391 9.75001 9.375V9.3375C10.2057 9.24497 10.6107 8.98643 10.8865 8.61205C11.1623 8.23768 11.2891 7.77419 11.2424 7.31156C11.1957 6.84894 10.9787 6.42018 10.6336 6.10852C10.2886 5.79686 9.83999 5.62453 9.37501 5.625H8.62501C8.52555 5.625 8.43017 5.58549 8.35984 5.51517C8.28951 5.44484 8.25001 5.34946 8.25001 5.25Z" fill="#17B978"/>
</svg>
