<svg width="18" height="18" viewBox="0 0 18 18" fill="none" xmlns="http://www.w3.org/2000/svg">
<path d="M16.5 6.75C16.3011 6.75 16.1103 6.82902 15.9697 6.96968C15.829 7.11033 15.75 7.30109 15.75 7.50001V15C15.75 15.1989 15.671 15.3897 15.5303 15.5303C15.3897 15.671 15.1989 15.75 15 15.75C14.8011 15.75 14.6103 15.671 14.4697 15.5303C14.329 15.3897 14.25 15.1989 14.25 15V4.5C14.25 4.00755 14.153 3.51991 13.9646 3.06494C13.7761 2.60997 13.4999 2.19657 13.1517 1.84835C12.8034 1.50013 12.39 1.22391 11.9351 1.03545C11.4801 0.846997 10.9925 0.75 10.5 0.75H4.5C4.00755 0.75 3.51991 0.846997 3.06494 1.03545C2.60997 1.22391 2.19657 1.50013 1.84835 1.84835C1.14509 2.55161 0.75 3.50544 0.75 4.5V13.5C0.75 13.9925 0.846997 14.4801 1.03545 14.9351C1.22391 15.39 1.50013 15.8034 1.84835 16.1517C2.55161 16.8549 3.50544 17.25 4.5 17.25H15C15.5967 17.25 16.169 17.013 16.591 16.591C17.013 16.169 17.25 15.5967 17.25 15V7.50001C17.25 7.30109 17.171 7.11033 17.0303 6.96968C16.8897 6.82902 16.6989 6.75 16.5 6.75ZM10.5 12.75H4.5C4.30109 12.75 4.11033 12.671 3.96967 12.5303C3.82902 12.3897 3.75 12.1989 3.75 12C3.75 11.8011 3.82902 11.6103 3.96967 11.4697C4.11033 11.329 4.30109 11.25 4.5 11.25H10.5C10.6989 11.25 10.8897 11.329 11.0303 11.4697C11.171 11.6103 11.25 11.8011 11.25 12C11.25 12.1989 11.171 12.3897 11.0303 12.5303C10.8897 12.671 10.6989 12.75 10.5 12.75ZM10.5 9.75001H4.5C4.30109 9.75001 4.11033 9.67099 3.96967 9.53034C3.82902 9.38968 3.75 9.19892 3.75 9.00001C3.75 8.80109 3.82902 8.61033 3.96967 8.46968C4.11033 8.32902 4.30109 8.25001 4.5 8.25001H10.5C10.6989 8.25001 10.8897 8.32902 11.0303 8.46968C11.171 8.61033 11.25 8.80109 11.25 9.00001C11.25 9.19892 11.171 9.38968 11.0303 9.53034C10.8897 9.67099 10.6989 9.75001 10.5 9.75001ZM10.5 6.75H4.5C4.30109 6.75 4.11033 6.67099 3.96967 6.53033C3.82902 6.38968 3.75 6.19892 3.75 6C3.75 5.80109 3.82902 5.61033 3.96967 5.46967C4.11033 5.32902 4.30109 5.25 4.5 5.25H10.5C10.6989 5.25 10.8897 5.32902 11.0303 5.46967C11.171 5.61033 11.25 5.80109 11.25 6C11.25 6.19892 11.171 6.38968 11.0303 6.53033C10.8897 6.67099 10.6989 6.75 10.5 6.75Z" fill="#17B978"/>
</svg>
