<svg width="18" height="18" viewBox="0 0 18 18" fill="none" xmlns="http://www.w3.org/2000/svg">
<path d="M13.5 0.75V1.5C13.5 1.69891 13.421 1.88968 13.2803 2.03033C13.1397 2.17098 12.9489 2.25 12.75 2.25H9.74999C9.55107 2.25 9.36031 2.17098 9.21966 2.03033C9.079 1.88968 8.99999 1.69891 8.99999 1.5V0.75C8.00542 0.75 7.0516 1.14509 6.34833 1.84835C5.64507 2.55161 5.24998 3.50544 5.24998 4.5V5.445C3.75977 5.86605 2.49005 6.84697 1.70638 8.18259C0.922715 9.51822 0.685795 11.1051 1.04517 12.6114C1.40455 14.1177 2.33239 15.4267 3.63464 16.2646C4.93689 17.1026 6.51269 17.4046 8.03249 17.1075C8.34738 17.197 8.67265 17.2449 8.99999 17.25H13.5C13.9924 17.25 14.4801 17.153 14.9351 16.9646C15.39 16.7761 15.8034 16.4999 16.1516 16.1517C16.4999 15.8034 16.7761 15.39 16.9645 14.9351C17.153 14.4801 17.25 13.9925 17.25 13.5V4.5C17.25 4.00755 17.153 3.51991 16.9645 3.06494C16.7761 2.60997 16.4999 2.19657 16.1516 1.84835C15.8034 1.50013 15.39 1.22391 14.9351 1.03545C14.4801 0.846997 13.9924 0.75 13.5 0.75ZM2.24998 11.25C2.24998 10.36 2.5139 9.48996 3.00837 8.74994C3.50283 8.00992 4.20564 7.43314 5.02791 7.09255C5.85018 6.75195 6.75498 6.66284 7.62789 6.83647C8.50081 7.01011 9.30263 7.43869 9.93197 8.06803C10.5613 8.69736 10.9899 9.49919 11.1635 10.3721C11.3372 11.245 11.248 12.1498 10.9074 12.9721C10.5669 13.7944 9.99007 14.4972 9.25005 14.9916C8.51003 15.4861 7.64 15.75 6.74998 15.75C5.55651 15.75 4.41192 15.2759 3.568 14.432C2.72409 13.5881 2.24998 12.4435 2.24998 11.25ZM5.99998 10.125C5.99998 10.2245 6.03949 10.3198 6.10982 10.3902C6.18014 10.4605 6.27553 10.5 6.37498 10.5H7.12498C7.62227 10.4503 8.11893 10.6001 8.50573 10.9166C8.89252 11.2331 9.13776 11.6902 9.18749 12.1875C9.23721 12.6848 9.08736 13.1815 8.77089 13.5683C8.45443 13.955 7.99727 14.2003 7.49998 14.25C7.49998 14.4489 7.42097 14.6397 7.28031 14.7803C7.13966 14.921 6.9489 15 6.74998 15C6.55107 15 6.36031 14.921 6.21965 14.7803C6.079 14.6397 5.99998 14.4489 5.99998 14.25H5.24998C5.05107 14.25 4.86031 14.171 4.71965 14.0303C4.579 13.8897 4.49998 13.6989 4.49998 13.5C4.49998 13.3011 4.579 13.1103 4.71965 12.9697C4.86031 12.829 5.05107 12.75 5.24998 12.75H7.12498C7.22444 12.75 7.31982 12.7105 7.39015 12.6402C7.46048 12.5698 7.49998 12.4745 7.49998 12.375C7.49998 12.2756 7.46048 12.1802 7.39015 12.1098C7.31982 12.0395 7.22444 12 7.12498 12H6.37498C5.91 12.0005 5.46143 11.8282 5.11636 11.5165C4.77128 11.2048 4.55432 10.7761 4.50759 10.3134C4.46086 9.85082 4.5877 9.38733 4.86347 9.01295C5.13925 8.63858 5.5443 8.38004 5.99998 8.28751V8.25001C5.99998 8.05109 6.079 7.86033 6.21965 7.71968C6.36031 7.57902 6.55107 7.50001 6.74998 7.50001C6.9489 7.50001 7.13966 7.57902 7.28031 7.71968C7.42097 7.86033 7.49998 8.05109 7.49998 8.25001H8.24999C8.4489 8.25001 8.63966 8.32902 8.78032 8.46968C8.92097 8.61033 8.99999 8.80109 8.99999 9.00001C8.99999 9.19892 8.92097 9.38968 8.78032 9.53034C8.63966 9.67099 8.4489 9.75001 8.24999 9.75001H6.37498C6.27553 9.75001 6.18014 9.78952 6.10982 9.85984C6.03949 9.93017 5.99998 10.0256 5.99998 10.125Z" fill="#17B978"/>
</svg>
