<svg width="18" height="18" viewBox="0 0 18 18" fill="none" xmlns="http://www.w3.org/2000/svg">
<path d="M16.2422 5.70684C15.8552 5.37318 15.3679 5.17829 14.8575 5.15306C15.0915 4.40438 15.4641 3.70636 15.956 3.09538C15.9946 3.05456 16.0247 3.00642 16.0445 2.95381C16.0643 2.9012 16.0733 2.84516 16.0711 2.789C16.0689 2.73284 16.0556 2.67768 16.0317 2.62676C16.0079 2.57584 15.9742 2.53019 15.9325 2.4925C15.8908 2.4548 15.842 2.42581 15.789 2.40724C15.7359 2.38866 15.6797 2.38088 15.6236 2.38433C15.5675 2.38779 15.5127 2.40243 15.4623 2.42738C15.4119 2.45232 15.3671 2.48709 15.3303 2.52962C14.7007 3.31357 14.234 4.21544 13.9578 5.18226C13.947 5.18467 13.9361 5.18698 13.9253 5.18957C13.7902 4.69797 13.7687 4.18207 13.8625 3.68094C13.8786 3.62691 13.8837 3.5702 13.8775 3.51416C13.8713 3.45812 13.854 3.40389 13.8265 3.35467C13.799 3.30545 13.7619 3.26225 13.7174 3.2276C13.6729 3.19296 13.622 3.16758 13.5675 3.15297C13.5131 3.13836 13.4562 3.13481 13.4004 3.14253C13.3445 3.15025 13.2908 3.16909 13.2424 3.19794C13.1939 3.22678 13.1517 3.26504 13.1183 3.31045C13.0849 3.35587 13.061 3.40752 13.0479 3.46236C12.9085 4.16515 12.9448 4.89145 13.1533 5.57691C12.7164 5.9993 12.3649 6.50195 12.1183 7.05735C12.803 8.92833 12.2393 10.8339 10.5672 12.2998C9.93274 13.4216 8.48942 14.1154 6.83735 14.1154C6.19666 14.1452 5.55665 14.0435 4.95673 13.8167C4.35681 13.5898 3.80967 13.2426 3.349 12.7963C3.01927 12.9004 2.70427 12.9979 2.42003 13.0837C2.08545 13.1789 1.79132 13.3812 1.58279 13.6596C1.37425 13.938 1.26283 14.2772 1.26561 14.625C1.26594 14.886 1.36976 15.1362 1.55429 15.3207C1.73883 15.5052 1.98902 15.609 2.24999 15.6094H10.7212C13.8185 15.6094 15.1487 12.7035 15.3605 9.98437C15.4893 8.37433 15.9683 7.93653 16.2855 7.64702C16.4168 7.55554 16.5255 7.4353 16.6033 7.29544C16.6811 7.15558 16.7259 6.99981 16.7344 6.84C16.7347 6.62742 16.6912 6.41705 16.6065 6.22207C16.5218 6.02709 16.3978 5.85169 16.2422 5.70684Z" fill="#17B978"/>
<path d="M11.317 7.3246C10.8782 5.5678 8.87775 4.35555 7.20786 4.40443C6.45637 4.42795 5.72185 4.63372 5.06752 5.00404C4.41318 5.37436 3.85864 5.89814 3.4516 6.53029C3.03278 7.20106 2.78562 7.96466 2.73198 8.75363C2.67833 9.5426 2.81985 10.3326 3.14403 11.0539C3.3723 11.5892 3.72598 12.0618 4.17522 12.4317C4.62445 12.8016 5.15607 13.058 5.72522 13.1794C6.15516 13.277 6.60139 13.2781 7.03181 13.1827C7.46223 13.0872 7.86614 12.8975 8.21445 12.6272C8.63043 12.2788 8.9543 11.8334 9.15748 11.3302C9.29562 10.8809 9.32454 10.4051 9.24185 9.94235C9.15916 9.47961 8.96725 9.04327 8.68206 8.66959C8.51618 8.43595 8.28921 8.25245 8.02601 8.13918C7.7628 8.02592 7.47351 7.98726 7.1898 8.02744C7.02163 8.0346 6.85672 8.07626 6.70533 8.14984C6.55394 8.22341 6.41929 8.32733 6.30974 8.45514C6.2002 8.58294 6.11811 8.7319 6.06856 8.89277C6.01901 9.05364 6.00307 9.22298 6.02172 9.39027C6.06317 9.94073 6.3892 10.406 6.73305 10.406C6.84494 10.406 6.95225 10.4504 7.03136 10.5295C7.11048 10.6087 7.15493 10.716 7.15493 10.8278C7.15493 10.9397 7.11048 11.047 7.03136 11.1262C6.95225 11.2053 6.84494 11.2497 6.73305 11.2497C5.9253 11.2497 5.2579 10.4774 5.18016 9.454C5.15165 9.18126 5.17807 8.90558 5.25785 8.64322C5.33764 8.38085 5.46917 8.13713 5.64469 7.92644C5.8202 7.71575 6.03615 7.54235 6.27978 7.41648C6.52341 7.29061 6.78978 7.21482 7.06318 7.19359C7.49441 7.12725 7.93558 7.18117 8.33814 7.34942C8.7407 7.51767 9.08903 7.79372 9.34479 8.1472C10.6715 9.59918 9.88479 11.7548 9.86904 11.7866C10.4896 11.242 10.9516 10.54 11.2065 9.75465C11.4613 8.96934 11.4995 8.1298 11.317 7.3246Z" fill="#17B978"/>
</svg>
