<svg width="18" height="18" viewBox="0 0 18 18" fill="none" xmlns="http://www.w3.org/2000/svg">
<path d="M13.5 0.75H10.5C9.94495 0.753308 9.41072 0.961658 9 1.335C8.58927 0.961658 8.05504 0.753308 7.5 0.75H4.5C3.90326 0.75 3.33097 0.987053 2.90901 1.40901C2.48705 1.83097 2.25 2.40326 2.25 3V15C2.25 15.5967 2.48705 16.169 2.90901 16.591C3.33097 17.013 3.90326 17.25 4.5 17.25H7.5C8.05504 17.2467 8.58927 17.0384 9 16.665C9.41072 17.0384 9.94495 17.2467 10.5 17.25H13.5C14.0967 17.25 14.669 17.013 15.091 16.591C15.5129 16.169 15.75 15.5967 15.75 15V3C15.75 2.40326 15.5129 1.83097 15.091 1.40901C14.669 0.987053 14.0967 0.75 13.5 0.75ZM5.25 4.5C5.25 4.30109 5.32902 4.11033 5.46967 3.96967C5.61032 3.82902 5.80109 3.75 6 3.75C6.19891 3.75 6.38968 3.82902 6.53033 3.96967C6.67098 4.11033 6.75 4.30109 6.75 4.5V9.00001C6.75 9.19892 6.67098 9.38968 6.53033 9.53034C6.38968 9.67099 6.19891 9.75001 6 9.75001C5.80109 9.75001 5.61032 9.67099 5.46967 9.53034C5.32902 9.38968 5.25 9.19892 5.25 9.00001V4.5ZM6.375 14.25H5.625C5.42609 14.25 5.23532 14.171 5.09467 14.0303C4.95402 13.8897 4.875 13.6989 4.875 13.5C4.875 13.3011 4.95402 13.1103 5.09467 12.9697C5.23532 12.829 5.42609 12.75 5.625 12.75H6.375C6.57391 12.75 6.76468 12.829 6.90533 12.9697C7.04598 13.1103 7.125 13.3011 7.125 13.5C7.125 13.6989 7.04598 13.8897 6.90533 14.0303C6.76468 14.171 6.57391 14.25 6.375 14.25ZM11.25 4.5C11.25 4.30109 11.329 4.11033 11.4697 3.96967C11.6103 3.82902 11.8011 3.75 12 3.75C12.1989 3.75 12.3897 3.82902 12.5303 3.96967C12.671 4.11033 12.75 4.30109 12.75 4.5V9.00001C12.75 9.19892 12.671 9.38968 12.5303 9.53034C12.3897 9.67099 12.1989 9.75001 12 9.75001C11.8011 9.75001 11.6103 9.67099 11.4697 9.53034C11.329 9.38968 11.25 9.19892 11.25 9.00001V4.5ZM12.375 14.25H11.625C11.4261 14.25 11.2353 14.171 11.0947 14.0303C10.954 13.8897 10.875 13.6989 10.875 13.5C10.875 13.3011 10.954 13.1103 11.0947 12.9697C11.2353 12.829 11.4261 12.75 11.625 12.75H12.375C12.5739 12.75 12.7647 12.829 12.9053 12.9697C13.046 13.1103 13.125 13.3011 13.125 13.5C13.125 13.6989 13.046 13.8897 12.9053 14.0303C12.7647 14.171 12.5739 14.25 12.375 14.25Z" fill="#17B978"/>
</svg>
