<svg width="18" height="18" viewBox="0 0 18 18" fill="none" xmlns="http://www.w3.org/2000/svg">
<path d="M11.67 7.35L12.6675 12.225C12.7087 12.4216 12.71 12.6245 12.6714 12.8216C12.6327 13.0187 12.5549 13.206 12.4425 13.3725L10.2375 16.5975C10.0997 16.7986 9.91505 16.9631 9.69943 17.0767C9.4838 17.1904 9.24373 17.2498 8.99998 17.2498C8.75624 17.2498 8.51616 17.1904 8.30054 17.0767C8.08491 16.9631 7.90023 16.7986 7.76249 16.5975L5.55749 13.3725C5.44506 13.206 5.36722 13.0187 5.32857 12.8216C5.28992 12.6245 5.29125 12.4216 5.33249 12.225L6.32999 7.35C6.36505 7.17804 6.45931 7.02383 6.59634 6.9142C6.73338 6.80457 6.90453 6.74646 7.07999 6.75H10.95C11.1203 6.75338 11.2844 6.81464 11.4152 6.92369C11.5461 7.03274 11.6359 7.18309 11.67 7.35ZM11.67 1.35C11.5333 1.16771 11.3569 1.01893 11.1542 0.914971C10.9515 0.81101 10.7278 0.754593 10.5 0.750002H7.49999C7.27153 0.749665 7.04601 0.801517 6.84065 0.901601C6.63528 1.00169 6.45549 1.14736 6.31499 1.3275C6.17586 1.5069 6.07928 1.71555 6.03251 1.9377C5.98574 2.15986 5.99001 2.38973 6.04499 2.61L6.41999 4.11C6.50039 4.43521 6.68733 4.72414 6.95103 4.93075C7.21472 5.13735 7.53999 5.24974 7.87498 5.25H10.125C10.46 5.24974 10.7852 5.13735 11.0489 4.93075C11.3126 4.72414 11.4996 4.43521 11.58 4.11L11.955 2.61C12.01 2.38973 12.0142 2.15986 11.9675 1.9377C11.9207 1.71555 11.8241 1.5069 11.685 1.3275L11.67 1.35Z" fill="#17B978"/>
</svg>
