<svg width="18" height="18" viewBox="0 0 18 18" fill="none" xmlns="http://www.w3.org/2000/svg">
<path d="M9 9.75001C11.4853 9.75001 13.5 7.73529 13.5 5.25001C13.5 2.76472 11.4853 0.75 9 0.75C6.51472 0.75 4.5 2.76472 4.5 5.25001C4.5 7.73529 6.51472 9.75001 9 9.75001Z" fill="#17B978"/>
<path d="M12 11.25H6C5.00544 11.25 4.05161 11.6451 3.34835 12.3484C2.64509 13.0516 2.25 14.0054 2.25 15C2.25 15.5967 2.48705 16.169 2.90901 16.591C3.33097 17.0129 3.90326 17.25 4.5 17.25H13.5C14.0967 17.25 14.669 17.0129 15.091 16.591C15.5129 16.169 15.75 15.5967 15.75 15C15.75 14.0054 15.3549 13.0516 14.6516 12.3484C13.9484 11.6451 12.9946 11.25 12 11.25Z" fill="#17B978"/>
</svg>
